<svg xmlns="http://www.w3.org/2000/svg" width="1200" height="630" viewBox="0 0 1200 630"><rect width="1200" height="630" fill="#f7f8fb"/><g stroke="#dce8e9"><path d="M0 90h1200M0 180h1200M0 270h1200M0 360h1200M0 450h1200M0 540h1200"/><path d="M120 0v630M240 0v630M360 0v630M480 0v630M600 0v630M720 0v630M840 0v630M960 0v630M1080 0v630"/></g><text x="82" y="220" fill="#17191f" font-family="Arial,sans-serif" font-size="62" font-weight="700">React Anchored</text><text x="82" y="290" fill="#17191f" font-family="Arial,sans-serif" font-size="62" font-weight="700">Layer</text><text x="86" y="350" fill="#4c5b5e" font-family="Arial,sans-serif" font-size="27">Floating content that stays attached.</text><text x="758" y="94" fill="#075963" font-family="monospace" font-size="18">anchor width: 326px</text><path d="M714 108h404m-404-10v20m404-20v20" stroke="#73c8ce" stroke-width="2"/><rect x="714" y="130" width="404" height="78" rx="6" fill="#fff" stroke="#087783" stroke-width="3"/><text x="744" y="178" fill="#17191f" font-family="Arial,sans-serif" font-size="24">Vienna, Austria</text><path d="M916 208v66" stroke="#73c8ce" stroke-width="3" stroke-dasharray="7 7"/><circle cx="916" cy="241" r="6" fill="#087783"/><text x="936" y="247" fill="#075963" font-family="monospace" font-size="17">7px offset</text><path d="M656 274h500" stroke="#9eb1b5" stroke-width="2" stroke-dasharray="10 8"/><text x="662" y="263" fill="#536b70" font-family="monospace" font-size="15">clipping boundary</text><rect x="670" y="298" width="486" height="210" rx="7" fill="#fff" stroke="#087783" stroke-width="4"/><path d="M670 354h486M670 410h486" stroke="#dce8e9" stroke-width="2"/><text x="704" y="337" fill="#17191f" font-family="Arial,sans-serif" font-size="23">Vienna, Austria</text><text x="704" y="393" fill="#17191f" font-family="Arial,sans-serif" font-size="23">Vienna International Airport</text><text x="704" y="449" fill="#17191f" font-family="Arial,sans-serif" font-size="23">Vienna Woods</text><text x="672" y="548" fill="#075963" font-family="monospace" font-size="17">bottom-start  ·  portal → modal root</text></svg>
